<?xml version="1.0" encoding="utf-8"?>
<!-- Generator: Adobe Illustrator 25.4.1, SVG Export Plug-In . SVG Version: 6.00 Build 0)  -->
<svg version="1.1" id="Layer_1" xmlns="http://www.w3.org/2000/svg" xmlns:xlink="http://www.w3.org/1999/xlink" x="0px" y="0px"
	 viewBox="0 0 1658 723" style="enable-background:new 0 0 1658 723;" xml:space="preserve">
<style type="text/css">
	.st0{fill:#FFFFFF;}
</style>
<path class="st0" d="M94.02,528.06c0,69.6,43.5,112.59,113.61,112.59c28.16,0,59.75-8.63,86.51-23.48l32.66,69.91
	c-32.7,21.27-77.46,34.42-120.19,34.42C84.3,721.5,1.38,639.11,1.38,528.06c0-111.57,82.91-193.96,205.22-193.96
	c63.08,0,108.77,27.69,120.19,35.18l-32.55,69.68c-26.9-14.43-56.99-23.5-86.61-23.5C137.51,415.47,94.02,458.46,94.02,528.06z
	 M1350.68,338.99v79.84h109.84V716.9h87V418.83h109.84v-79.84H1350.68z M523.27,326.35L705.72,716.9h-90.58l-28.15-68.06H457.52
	l-28.15,68.06h-88.53L523.27,326.35z M559.35,582.31l-36.84-90.07l-37.36,90.07H559.35z M1217.43,326.35l182.44,390.55h-90.57
	l-28.15-68.06h-129.47l-28.15,68.06h-88.54L1217.43,326.35z M1253.51,582.31l-36.84-90.07l-37.36,90.07H1253.51z M944.37,571.82
	l77.35,144.82h-94.65l-57.14-121.8h-47.7v121.8h-86.99V338.96h110.54c116.68,0,162.74,55.79,162.74,124.36
	C1008.51,514.76,984.8,547.76,944.37,571.82z M917.93,466.39c0-31.22-24.55-49.64-61.92-49.64h-33.78v107.47h27.64
	C891.32,524.22,917.93,504.26,917.93,466.39z M131.98,320.29h-4.19L4.18,9.8l2.93-3.77h82.96l52.8,160.48L229.19,1h4.19
	l92.18,165.51L381.29,6.03h81.29l1.68,3.77L332.27,320.29h-4.19l-96.79-177.66L131.98,320.29z M678.37,241.51v73.75H481.02V6.03
	h197.35v73.75H558.96v53.21h98.47v68.72h-98.47v39.81H678.37z M972.93,1h4.19l162.99,310.91l-2.51,3.35h-79.61l-18.86-41.06H909.66
	l-19.27,41.06h-77.94l-2.51-3.35L972.93,1z M975.03,133.83l-33.52,71.65h66.2L975.03,133.83z M1224.76,315.26h-77.94V6.03h128.22
	c30.44,0,56.63,9.36,78.56,28.07c21.93,18.72,32.89,46.09,32.89,82.13c0,41.63-15.37,72.77-46.09,93.44l58.24,102.24l-1.68,3.35
	h-79.61l-47.35-83.8h-5.45h-39.81V315.26z M1257.86,74.75h-33.1v87.99h26.82c17.04,0,30.65-4.05,40.85-12.15
	c10.19-8.1,15.29-19.13,15.29-33.1c0-13.96-4.75-24.58-14.25-31.84C1283.98,78.38,1272.11,74.75,1257.86,74.75z M1627,241.51v73.75
	h-197.35V6.03H1627v73.75h-119.42v53.21h98.47v68.72h-98.47v39.81H1627z"/>
</svg>
